<?xml version="1.0" standalone="no"?>
<svg xmlns="http://www.w3.org/2000/svg" viewBox="0 0 110.965 36" width="110.965" height="36"><g fill="#72edca" color="#72edca" transform="translate(0 4) scale(0.6363637)"><svg width="44.0" height="44.0" x="0.0" y="0.0" viewBox="0 0 44 44"><path fill="currentColor" fill-rule="evenodd" d="M38.728 38.728c-4.084 4.085-10.73 4.085-14.814 0l-.444-.397c-.097-.097-.916-.91-1.519-2.168a8.669 8.669 0 0 1-1.513 2.212l-.353.353c-4.084 4.085-10.73 4.085-14.814 0-4.084-4.084-4.084-10.73 0-14.814l11.891-11.89.857.856-11.89 11.891c-3.613 3.612-3.613 9.489 0 13.1 3.611 3.614 9.488 3.614 13.1 0l.371-.372c.938-.973 1.646-2.475 1.698-4.023 0-.045.004-.09.005-.135.01-1.21-.385-2.435-1.398-3.45l-1.888-1.886-.18-.194-3.395-3.393.857-.857 4.739 4.739.397.405c.703.704 1.202 1.403 1.545 2.087.345-.66.834-1.335 1.517-2.018l.065-.073 11.892-11.89a5.851 5.851 0 0 0 0-8.265 5.85 5.85 0 0 0-8.263 0l-.353.354-.857-.857.353-.353c2.75-2.75 7.226-2.75 9.976 0 2.751 2.75 2.751 7.226 0 9.976L24.418 29.558l-.375.377c-2.38 2.38-1.446 5.788.295 7.527l.433.41c3.612 3.613 9.488 3.613 13.1 0 3.613-3.612 3.613-9.489 0-13.1l-.353-.354.857-.857.353.354c4.084 4.084 4.084 10.73 0 14.813zM15.6 10.461l-5.14 5.14-.352-.353a3.639 3.639 0 0 1 0-5.14 3.638 3.638 0 0 1 5.14 0l.352.353zm1.21-1.914a5.849 5.849 0 0 0-8.263 0 5.85 5.85 0 0 0 0 8.263l.352.353-.856.856-.353-.352c-2.75-2.751-2.75-7.227 0-9.978 2.75-2.75 7.226-2.75 9.976 0l11.892 11.892-.857.856L16.81 8.547zM22 16.86L27.138 22l-5.14 5.139L16.86 22 22 16.86zM10.46 28.4l5.14 5.138-.353.353a3.638 3.638 0 0 1-5.139 0 3.639 3.639 0 0 1 0-5.14l.353-.351zm-.78-2.344l-1.134 1.133a5.85 5.85 0 0 0 0 8.264 5.85 5.85 0 0 0 8.263 0l.353-.353c1.741-1.74-.354-3.473-1.362-4.482l-.657-.661-3.12-3.121.856-.856 4.15 4.15.328.329c3.052 3.05.899 5.26.662 5.497l-.353.353c-2.75 2.752-7.226 2.75-9.977 0-2.75-2.75-2.75-7.226 0-9.977l11.892-11.89.856.857-5.92 5.92-4.837 4.837zM28.399 10.46l.353-.353a3.64 3.64 0 0 1 5.14 0 3.64 3.64 0 0 1 0 5.14l-.353.352-5.14-5.14zM5.271 5.27c4.084-4.084 10.73-4.084 14.814 0l11.89 11.89-.856.858L19.23 6.128c-3.613-3.612-9.489-3.612-13.1 0-3.613 3.612-3.613 9.489 0 13.1l.352.353-.857.857-.353-.352C1.187 16 1.187 9.356 5.271 5.27zm28.62 28.62a3.64 3.64 0 0 1-5.14 0l-.352-.352 5.14-5.14.352.352a3.64 3.64 0 0 1 0 5.14zm-9.977-28.62c4.085-4.084 10.73-4.084 14.814 0s4.084 10.73 0 14.814L26.837 31.976c-.91.911-1.132 1.992-.053 3.083l.406.394a5.85 5.85 0 0 0 8.263 0 5.85 5.85 0 0 0 0-8.263l-.352-.353.856-.856.353.353a7.061 7.061 0 0 1 0 9.976c-2.75 2.75-7.227 2.75-9.977 0 0 0-.173-.146-.407-.382-.215-.218-2.358-2.395.055-4.808l11.89-11.891c3.613-3.612 3.613-9.489 0-13.101-3.611-3.612-9.488-3.612-13.1 0l-.353.353-.856-.856.352-.354zM39.938 22l.353-.353c4.945-4.946 4.945-12.992 0-17.938-4.946-4.945-12.992-4.945-17.938 0L22 4.062l-.353-.353c-4.945-4.945-12.992-4.945-17.938 0-4.945 4.946-4.945 12.992 0 17.938l.353.353-.352.353c-4.946 4.945-4.946 12.991 0 17.938 4.945 4.945 12.992 4.945 17.937 0l.353-.353.353.353c4.946 4.945 12.992 4.945 17.938 0 4.945-4.947 4.945-12.993 0-17.938L39.938 22z"></path></svg></g><path fill="#0019ff" fill-rule="nonzero" d="M5.84 14.47L5.84 14.47Q4.56 14.47 3.49 14.04Q2.41 13.61 1.64 12.83Q0.87 12.05 0.43 10.97Q0 9.89 0 8.59L0 8.59Q0 7.89 0.12 7.24Q0.25 6.59 0.46 6.02L0.46 6.02Q0.55 5.80 0.55 5.71L0.55 5.71Q0.55 5.59 0.49 5.48Q0.43 5.38 0.36 5.26Q0.29 5.14 0.23 5.02Q0.18 4.89 0.18 4.72L0.18 4.72Q0.18 4.23 0.74 3.76Q1.30 3.28 2.23 2.91Q3.15 2.54 4.32 2.31Q5.50 2.09 6.73 2.09L6.73 2.09Q8.24 2.09 9.45 2.47Q10.66 2.86 11.51 3.58Q12.36 4.30 12.82 5.33Q13.28 6.36 13.28 7.65L13.28 7.65Q13.28 9.09 12.70 10.34Q12.13 11.59 11.13 12.50Q10.13 13.42 8.77 13.95Q7.41 14.47 5.84 14.47ZM10.92 8.11L10.92 8.11Q10.92 7.20 10.61 6.47Q10.29 5.74 9.69 5.24Q9.09 4.75 8.22 4.48Q7.35 4.22 6.25 4.22L6.25 4.22Q4.31 4.22 3.33 5.20Q2.36 6.18 2.36 8.11L2.36 8.11Q2.36 9.05 2.65 9.83Q2.94 10.61 3.47 11.16Q4.00 11.72 4.73 12.03Q5.46 12.34 6.34 12.34L6.34 12.34Q7.35 12.34 8.19 12.03Q9.04 11.72 9.64 11.16Q10.24 10.59 10.58 9.81Q10.92 9.04 10.92 8.11ZM13.62 4.83L13.62 4.83Q13.62 4.37 14.03 4.13Q14.44 3.89 15.20 3.89L15.20 3.89Q15.38 3.89 15.52 3.94Q15.66 3.98 15.77 4.12Q15.88 4.25 15.97 4.49Q16.07 4.72 16.16 5.09L16.16 5.09Q16.25 5.50 16.35 5.50L16.35 5.50Q16.43 5.50 16.55 5.16L16.55 5.16Q16.76 4.49 17.10 3.99Q17.45 3.49 17.88 3.16Q18.32 2.82 18.83 2.66Q19.34 2.50 19.90 2.50L19.90 2.50Q21.04 2.50 22.02 2.92Q23.00 3.35 23.72 4.11Q24.43 4.86 24.84 5.89Q25.25 6.91 25.25 8.11L25.25 8.11Q25.25 9.38 24.81 10.45Q24.38 11.53 23.59 12.31Q22.80 13.09 21.72 13.53Q20.64 13.97 19.35 13.97L19.35 13.97L18.75 13.95Q18.22 13.95 18.22 14.54L18.22 14.54L18.82 19.92Q18.81 20.12 18.69 20.29Q18.56 20.46 18.36 20.59Q18.15 20.72 17.88 20.79Q17.60 20.86 17.31 20.86L17.31 20.86Q16.46 20.86 16.39 20.31L16.39 20.31Q16.15 18.18 15.85 16.25Q15.55 14.33 15.24 12.67Q14.93 11.02 14.64 9.66Q14.34 8.30 14.12 7.29Q13.89 6.28 13.75 5.65Q13.62 5.02 13.62 4.83ZM17.43 7.92L17.43 7.92Q17.43 8.68 17.48 9.43Q17.54 10.17 17.67 11.04L17.67 11.04Q17.74 11.57 18.25 11.64L18.25 11.64Q18.55 11.71 18.93 11.77Q19.31 11.84 19.57 11.84L19.57 11.84Q20.32 11.84 20.93 11.61Q21.54 11.39 21.97 10.97Q22.41 10.56 22.64 9.98Q22.88 9.41 22.88 8.71L22.88 8.71Q22.88 7.85 22.64 7.11Q22.41 6.36 22.00 5.81Q21.60 5.26 21.05 4.95Q20.51 4.63 19.88 4.63L19.88 4.63Q19.32 4.63 18.87 4.87Q18.42 5.11 18.10 5.54Q17.78 5.96 17.60 6.57Q17.43 7.18 17.43 7.92ZM36.54 10.44L36.54 10.44Q36.88 10.15 37.21 10.15L37.21 10.15Q37.39 10.15 37.55 10.24Q37.70 10.34 37.89 10.54L37.89 10.54Q38.06 10.80 38.14 10.97Q38.21 11.14 38.21 11.31L38.21 11.31Q38.21 11.66 37.86 11.98L37.86 11.98Q37.30 12.45 36.64 12.81Q35.99 13.18 35.27 13.44Q34.56 13.70 33.80 13.83Q33.04 13.97 32.29 13.97L32.29 13.97Q31.34 13.97 30.50 13.73Q29.67 13.49 29.02 13.04Q28.37 12.60 27.93 11.97Q27.48 11.34 27.29 10.56L27.29 10.56Q27.19 10.23 27.10 10.13Q27.01 10.03 26.81 10.03L26.81 10.03Q26.38 10.03 26.14 9.82Q25.91 9.61 25.91 9.21L25.91 9.21Q25.91 9.05 25.93 9L25.93 9L25.96 8.77Q26.02 8.34 26.19 8.16Q26.36 7.97 26.72 7.97L26.72 7.97L26.89 7.97Q27.39 7.97 27.59 7.51L27.59 7.51Q27.95 6.70 28.51 6.04Q29.07 5.37 29.78 4.89Q30.48 4.42 31.28 4.15Q32.09 3.89 32.92 3.89L32.92 3.89Q33.79 3.89 34.54 4.14Q35.30 4.39 35.86 4.84Q36.42 5.29 36.74 5.88Q37.07 6.48 37.07 7.17L37.07 7.17Q37.07 7.65 36.88 8.05Q36.69 8.45 36.34 8.75Q35.99 9.05 35.49 9.23Q34.99 9.42 34.36 9.48L34.36 9.48L30.29 9.89Q30.06 9.89 29.91 10.01Q29.77 10.13 29.77 10.32L29.77 10.32Q29.77 10.63 29.99 10.91Q30.22 11.19 30.60 11.41Q30.98 11.63 31.48 11.75Q31.98 11.88 32.51 11.88L32.51 11.88Q33.01 11.88 33.54 11.78Q34.08 11.68 34.60 11.50Q35.12 11.31 35.61 11.04Q36.11 10.78 36.54 10.44ZM33.93 7.42L33.93 7.42Q34.10 7.38 34.23 7.25Q34.36 7.11 34.36 6.91L34.36 6.91Q34.36 6.74 34.23 6.59Q34.10 6.43 33.88 6.31Q33.66 6.19 33.36 6.12Q33.07 6.05 32.74 6.05L32.74 6.05Q32.26 6.05 31.76 6.19Q31.25 6.33 30.84 6.56Q30.43 6.79 30.18 7.06Q29.92 7.34 29.92 7.61L29.92 7.61Q29.92 7.88 30.25 7.88L30.25 7.88Q30.45 7.88 30.89 7.83Q31.34 7.78 31.88 7.72Q32.41 7.65 32.96 7.57Q33.52 7.49 33.93 7.42ZM39.15 3.55L39.15 3.55Q39.15 3.38 39.30 3.21Q39.46 3.04 39.70 2.90Q39.95 2.77 40.26 2.68Q40.57 2.59 40.89 2.59L40.89 2.59Q41.06 2.59 41.19 2.68Q41.31 2.78 41.40 3.04Q41.50 3.30 41.57 3.78Q41.65 4.25 41.72 5.02L41.72 5.02Q41.77 5.25 41.81 5.37Q41.85 5.50 41.92 5.50L41.92 5.50Q42.02 5.50 42.13 5.13L42.13 5.13Q42.98 2.66 44.60 2.66L44.60 2.66Q45.35 2.66 45.97 3.13Q46.58 3.60 47.12 4.66Q47.65 5.72 48.13 7.45Q48.61 9.18 49.09 11.71L49.09 11.71Q49.11 11.84 49.13 11.94Q49.14 12.05 49.14 12.14L49.14 12.14Q49.14 12.41 49.01 12.60Q48.89 12.80 48.69 12.92Q48.49 13.04 48.25 13.11Q48 13.17 47.75 13.17L47.75 13.17Q47.26 13.17 47.04 13.07Q46.83 12.96 46.77 12.67L46.77 12.67Q46.43 10.89 46.11 9.50Q45.79 8.12 45.47 7.18Q45.16 6.23 44.86 5.74Q44.55 5.25 44.25 5.25L44.25 5.25Q43.95 5.25 43.68 5.63Q43.42 6.01 43.17 6.82Q42.93 7.63 42.70 8.87Q42.47 10.11 42.26 11.84L42.26 11.84Q42.20 12.30 41.79 12.59Q41.38 12.87 40.75 12.87L40.75 12.87Q40.32 12.87 40.10 12.69Q39.88 12.52 39.86 12.21L39.86 12.21Q39.75 9.77 39.63 8.20Q39.50 6.62 39.40 5.67Q39.29 4.71 39.22 4.24Q39.15 3.77 39.15 3.55ZM55.89 14.47L55.89 14.47Q54.61 14.47 53.54 14.04Q52.46 13.61 51.69 12.83Q50.92 12.05 50.48 10.97Q50.05 9.89 50.05 8.59L50.05 8.59Q50.05 7.89 50.17 7.24Q50.30 6.59 50.51 6.02L50.51 6.02Q50.60 5.80 50.60 5.71L50.60 5.71Q50.60 5.59 50.54 5.48Q50.48 5.38 50.41 5.26Q50.34 5.14 50.29 5.02Q50.23 4.89 50.23 4.72L50.23 4.72Q50.23 4.23 50.79 3.76Q51.35 3.28 52.28 2.91Q53.20 2.54 54.38 2.31Q55.55 2.09 56.78 2.09L56.78 2.09Q58.29 2.09 59.50 2.47Q60.71 2.86 61.56 3.58Q62.41 4.30 62.87 5.33Q63.33 6.36 63.33 7.65L63.33 7.65Q63.33 9.09 62.75 10.34Q62.18 11.59 61.18 12.50Q60.18 13.42 58.82 13.95Q57.46 14.47 55.89 14.47ZM60.97 8.11L60.97 8.11Q60.97 7.20 60.66 6.47Q60.34 5.74 59.74 5.24Q59.14 4.75 58.27 4.48Q57.40 4.22 56.30 4.22L56.30 4.22Q54.36 4.22 53.38 5.20Q52.41 6.18 52.41 8.11L52.41 8.11Q52.41 9.05 52.70 9.83Q52.99 10.61 53.52 11.16Q54.05 11.72 54.78 12.03Q55.51 12.34 56.39 12.34L56.39 12.34Q57.40 12.34 58.24 12.03Q59.09 11.72 59.69 11.16Q60.29 10.59 60.63 9.81Q60.97 9.04 60.97 8.11ZM67.15 8.20L67.15 8.20Q67.15 8.91 67.49 9.51Q67.84 10.11 68.40 10.56Q68.96 11.02 69.69 11.27Q70.42 11.52 71.18 11.52L71.18 11.52Q71.41 11.52 71.66 11.48Q71.91 11.44 72.11 11.33Q72.30 11.23 72.43 11.06Q72.56 10.89 72.56 10.63L72.56 10.63Q72.56 10.14 72.22 9.66Q71.87 9.18 71.31 8.70Q70.75 8.23 70.02 7.75Q69.29 7.28 68.54 6.81Q67.79 6.34 67.07 5.87Q66.34 5.39 65.78 4.92Q65.21 4.44 64.87 3.96Q64.52 3.47 64.52 2.98L64.52 2.98Q64.52 2.51 64.76 2.10Q65.00 1.70 65.40 1.37Q65.80 1.04 66.33 0.79Q66.86 0.53 67.43 0.35Q68.00 0.18 68.58 0.09Q69.16 0 69.69 0L69.69 0Q70.08 0 70.54 0.02Q71.00 0.04 71.41 0.12Q71.81 0.21 72.08 0.39Q72.35 0.56 72.35 0.89L72.35 0.89Q72.35 1.00 72.32 1.15Q72.28 1.31 72.12 1.68L72.12 1.68Q71.95 2.02 71.74 2.19Q71.52 2.36 71.18 2.36L71.18 2.36Q70.70 2.36 70.17 2.24Q69.63 2.13 69.09 2.13L69.09 2.13Q68.80 2.13 68.50 2.16Q68.20 2.19 67.96 2.27Q67.71 2.34 67.56 2.49Q67.41 2.64 67.41 2.86L67.41 2.86Q67.41 3.08 67.73 3.36Q68.05 3.64 68.58 3.98Q69.12 4.32 69.80 4.73Q70.48 5.13 71.19 5.60Q71.89 6.06 72.57 6.58Q73.25 7.10 73.79 7.68Q74.32 8.26 74.64 8.91Q74.96 9.55 74.96 10.24L74.96 10.24Q74.96 11.09 74.58 11.73Q74.19 12.38 73.58 12.81Q72.97 13.24 72.23 13.46Q71.50 13.68 70.79 13.68L70.79 13.68Q70.08 13.68 69.35 13.51Q68.61 13.34 67.93 13.03Q67.25 12.71 66.66 12.28Q66.07 11.84 65.64 11.29Q65.20 10.75 64.95 10.11Q64.70 9.48 64.70 8.79L64.70 8.79Q64.70 8.50 64.74 8.20Q64.78 7.90 64.89 7.67Q64.99 7.44 65.18 7.29Q65.37 7.15 65.66 7.15L65.66 7.15Q65.75 7.15 65.87 7.17Q65.99 7.18 66.28 7.28L66.28 7.28Q66.62 7.38 66.88 7.61Q67.15 7.84 67.15 8.20Z" transform="translate(36, 11.497)"></path></svg>